<svg xmlns="http://www.w3.org/2000/svg" viewBox="0 0 85.54 123.87"><defs><style>.cls-1{fill:#fff;}</style></defs><title>loc</title><g id="Layer_2" data-name="Layer 2"><g id="Ebene_2" data-name="Ebene 2"><path class="cls-1" d="M42.55,0h2a32.41,32.41,0,0,1,4.5.39A41.63,41.63,0,0,1,64.65,5.91c1.32.8,2.61,1.65,3.84,2.57.92.69,1.8,1.43,2.67,2.19s1.69,1.6,2.51,2.43A40.11,40.11,0,0,1,78,18.35a39.24,39.24,0,0,1,2.88,4.77,41,41,0,0,1,3,7.77c.36,1.32.7,2.65,1,4,.18.88.26,1.8.38,2.7a41.91,41.91,0,0,1,.29,5A41.53,41.53,0,0,1,85,49.44,45.57,45.57,0,0,1,83.77,55a39.7,39.7,0,0,1-3,7.41c-1,2-2.17,3.88-3.27,5.82s-2,3.62-3.06,5.42c-1.28,2.23-2.57,4.44-3.85,6.66-.89,1.55-1.75,3.12-2.64,4.68S66,88.28,65,90L62.7,94.06c-1,1.7-2,3.39-2.94,5.09l-3,5.19c-.93,1.65-1.88,3.29-2.83,4.93l-2.32,4-2.44,4.28c-.64,1.12-1.3,2.22-1.91,3.36a5.07,5.07,0,0,1-3.66,2.89A4.58,4.58,0,0,1,39.05,122a44.9,44.9,0,0,1-2.56-4.26c-1.05-1.76-2-3.56-3.07-5.31-.9-1.51-1.73-3-2.61-4.57-1.13-2-2.27-3.91-3.39-5.87-.82-1.43-1.62-2.86-2.44-4.28-1.43-2.48-2.91-4.94-4.29-7.44-1.15-2.07-2.36-4.1-3.51-6.16-1.39-2.46-2.83-4.9-4.24-7.35-1.17-2-2.32-4.12-3.49-6.17S7,66.44,5.83,64.31a48,48,0,0,1-3.05-6.44c-.46-1.26-.89-2.52-1.24-3.81a38.13,38.13,0,0,1-.92-4.27,47.32,47.32,0,0,1-.54-5,33.91,33.91,0,0,1,0-3.49A42.92,42.92,0,0,1,.6,35.61c.31-1.65.67-3.27,1.12-4.89a44.13,44.13,0,0,1,2.2-5.91,40.16,40.16,0,0,1,3.41-6.07,45,45,0,0,1,3-3.9,39.56,39.56,0,0,1,3.08-3.26,43.41,43.41,0,0,1,5.25-4.21,41.83,41.83,0,0,1,5.64-3.28,42.68,42.68,0,0,1,6.88-2.61,41.92,41.92,0,0,1,4.7-1c1-.15,2-.28,3.08-.36C40.21,0,41.5.07,42.55,0ZM23.72,47.36c-.15,4.07,2.33,9,5.14,11.9a19.06,19.06,0,0,0,27.39.48,18.41,18.41,0,0,0,5.6-12.49A19.12,19.12,0,0,0,43.72,27.18a18.39,18.39,0,0,0-14,5.13C25.78,36.06,23.75,40.7,23.72,47.36Z"/></g></g></svg>